<?xml version="1.0" encoding="utf-8"?>
<!-- Svg Vector Icons : http://www.onlinewebfonts.com/icon -->
<!DOCTYPE svg PUBLIC "-//W3C//DTD SVG 1.1//EN" "http://www.w3.org/Graphics/SVG/1.1/DTD/svg11.dtd">
<svg version="1.1" xmlns="http://www.w3.org/2000/svg" xmlns:xlink="http://www.w3.org/1999/xlink" x="0px" y="0px" viewBox="0 0 1000 1000" enable-background="new 0 0 1000 1000" xml:space="preserve">
<metadata> Svg Vector Icons : http://www.onlinewebfonts.com/icon </metadata>
<g><path d="M976.7,188.4l-165-165.1C794,5.5,765,5.5,747.3,23.3L98.5,672.1c-2.8,3-4.9,6.9-6.1,10.8L11.1,954.7c-2.9,9.8-0.2,20.2,6.9,27.3c7.1,7.1,17.6,9.8,27.2,6.9l272-81.2c4-1.2,7.7-3.4,10.7-6.3l0,0.1l0.8-0.7l21.7-21.8l626.3-626.3C994.4,235,994.4,206.1,976.7,188.4L976.7,188.4z M78.2,921.8l62.1-207.9l145.9,145.9L78.2,921.8L78.2,921.8z M331.1,820.9L179.1,669l505-505l152,152.1L331.1,820.9L331.1,820.9z M874.8,277.1l-152-151.9l56.7-56.7l152,152.1L874.8,277.1L874.8,277.1z"/></g>
</svg>